:SAMPLES-PER-SECOND 30
:FULLY-SPECIFIED
:DEGREES
407
root  1.09407 34.302 -26.3015 -160.688 74.6169 -175.614
RightUpLeg  -23.657 -14.2751 -2.18633
RightLeg  9.08188 6.57421 0.621632
RightFoot  12.9721 -0.13187 1.65737
RightToes  -38.9268 -0.209967 -0.30898
Spine  1.54213 2.87623 -0.659561
Spine1  2.94556 6.10708 -0.781994
HEad  -54.6631 -21.4101 3.17392
LeftShoulder1  -1.94126e-019 -3.10601e-018 -2.51263e-017
LeftArm  -8.26393 13.1668 -80.535
LeftForeArm  29.851 -20.591 -3.15953
LeftHand  -0.625496 -2.36144 9.57356
RightShoulder  -4.96962e-017 0 -2.36833e-017
RightArm  -12.6612 26.1722 75.9938
RightForeArm  50.4385 20.1616 1.8253
RightHand  -0.16398 -3.61714 -9.88098
LeftUpLeg  -26.4497 9.57826 4.31384
LeftLeg  24.7306 11.1403 4.24888
LeftFoot  2.53444 -0.0115405 0.726762
LeftToes  -22.2856 2.25955e-006 -3.67304e-008
408
root  1.30169 34.3186 -26.4744 -161.019 76.4477 -175.357
RightUpLeg  -22.4938 -13.4505 -2.70232
RightLeg  8.03087 7.46138 0.567632
RightFoot  13.3666 -0.166027 1.90942
RightToes  -39.7913 -0.216818 -0.31394
Spine  1.17134 3.06457 -0.75711
Spine1  2.20805 6.52987 -0.984808
HEad  -56.3962 -22.4347 4.34062
LeftShoulder1  -1.94126e-019 -3.10601e-018 -2.51263e-017
LeftArm  -9.61305 14.6959 -80.5806
LeftForeArm  29.9254 -20.3123 -3.13641
LeftHand  -0.609892 -2.0698 9.68441
RightShoulder  -4.96962e-017 0 -2.36833e-017
RightArm  -8.63936 24.0459 76.3617
RightForeArm  56.6366 12.5389 1.52179
RightHand  -0.189383 -2.11631 -6.42095
LeftUpLeg  -24.9131 10.6641 4.01899
LeftLeg  24.4412 11.7814 4.42202
LeftFoot  2.09591 -0.00722391 0.662688
LeftToes  -22.2362 2.25955e-006 -3.67304e-008
409
root  1.5111 34.3579 -26.6465 -161.687 78.2104 -175.456
RightUpLeg  -21.1385 -12.758 -3.25681
RightLeg  6.56297 8.37858 0.422192
RightFoot  13.905 -0.204623 2.16632
RightToes  -40.5273 -0.222709 -0.318081
Spine  0.961856 3.06682 -0.941881
Spine1  1.81327 6.38221 -1.24026
HEad  -59.1666 -23.6744 6.14993
LeftShoulder1  -1.94126e-019 -3.10601e-018 -2.51263e-017
LeftArm  -11.1804 16.1325 -80.4342
LeftForeArm  29.5715 -20.7926 -3.20484
LeftHand  -0.61878 -1.96761 9.9513
RightShoulder  -4.96962e-017 0 -2.36833e-017
RightArm  -3.38705 19.1785 76.6472
RightForeArm  65.3101 12.3582 1.56471
RightHand  -0.304127 -0.196791 -6.81823
LeftUpLeg  -23.1036 11.2591 3.72046
LeftLeg  23.5939 12.8348 4.59712
LeftFoot  1.90065 -0.00549994 0.639328
LeftToes  -21.9341 2.25955e-006 -3.67304e-008
410
root  1.71807 34.3999 -26.8093 -162.992 79.5553 -176.38
RightUpLeg  -19.9515 -12.129 -3.90555
RightLeg  5.25465 8.8241 0.243398
RightFoot  14.2933 -0.228395 2.30799
RightToes  -40.8575 -0.225369 -0.319915
Spine  0.68589 2.92477 -1.06265
Spine1  1.2775 5.96797 -1.4016
HEad  -61.666 -24.9232 7.91963
LeftShoulder1  -1.94126e-019 -3.10601e-018 -2.51263e-017
LeftArm  -12.9317 17.7977 -80.4641
LeftForeArm  28.8206 -21.1553 -3.22103
LeftHand  -0.626391 -1.91062 10.1455
RightShoulder  -4.96962e-017 0 -2.36833e-017
RightArm  0.859374 11.8951 76.5841
RightForeArm  63.2751 16.8055 1.48074
RightHand  -0.381289 -1.46419 -11.1592
LeftUpLeg  -21.4435 11.2362 3.35796
LeftLeg  22.516 14.1211 4.75387
LeftFoot  1.9173 -0.00753318 0.674846
LeftToes  -21.8215 2.25955e-006 -3.67304e-008
411
root  1.93006 34.4208 -26.9618 -165.058 80.4355 -177.981
RightUpLeg  -18.8813 -11.8212 -4.56239
RightLeg  4.47248 9.41419 0.131498
RightFoot  14.5232 -0.256151 2.49331
RightToes  -41.7562 -0.227521 -0.323035
Spine  0.539837 2.60632 -1.01293
Spine1  0.977869 5.33549 -1.32066
HEad  -63.9487 -25.7495 9.12934
LeftShoulder1  -1.94126e-019 -3.10601e-018 -2.51263e-017
LeftArm  -15.015 19.4113 -80.8373
LeftForeArm  28.1009 -21.2787 -3.18709
LeftHand  -0.613773 -1.81548 10.0696
RightShoulder  -4.96962e-017 0 -2.36833e-017
RightArm  0.416028 3.8454 75.7162
RightForeArm  54.3501 23.8442 2.37583
RightHand  -0.356596 -1.89019 -11.6458
LeftUpLeg  -19.8197 10.9147 3.00439
LeftLeg  21.4928 15.2644 4.83176
LeftFoot  1.86965 -0.00875889 0.69836
LeftToes  -21.5095 2.25955e-006 -3.67304e-008
412
root  2.09529 34.4295 -27.0715 -166.608 81.173 -179.256
RightUpLeg  -18.1628 -11.0046 -5.13326
RightLeg  3.9978 9.06679 0.051787
RightFoot  14.4112 -0.240868 2.39013
RightToes  -41.3338 -0.229395 -0.327406
Spine  0.417108 2.09222 -0.887637
Spine1  0.732935 4.31041 -1.08989
HEad  -65.838 -25.7489 9.68729
LeftShoulder1  -1.94126e-019 -3.10601e-018 -2.51263e-017
LeftArm  -15.9542 20.9157 -81.0463
LeftForeArm  27.1326 -21.2586 -3.17011
LeftHand  -0.60715 -1.60676 10.2445
RightShoulder  -4.96962e-017 0 -2.36833e-017
RightArm  -6.04613 -3.43401 75.5821
RightForeArm  49.1514 30.1022 3.88639
RightHand  -0.249538 -2.34502 -9.20324
LeftUpLeg  -18.6471 10.9159 2.70948
LeftLeg  20.6651 15.9907 4.80639
LeftFoot  1.79864 -0.00842221 0.698111
LeftToes  -21.1104 2.25955e-006 -3.67304e-008
413
root  2.22638 34.443 -27.1541 -168.224 82.1036 179.353
RightUpLeg  -17.8215 -10.3603 -5.55649
RightLeg  3.86212 9.27521 0.031098
RightFoot  14.315 -0.243633 2.42397
RightToes  -41.5335 -0.230848 -0.331178
Spine  0.288806 1.48468 -0.836434
Spine1  0.486146 3.0793 -0.987415
HEad  -67.0947 -25.1357 9.88092
LeftShoulder1  -1.94126e-019 -3.10601e-018 -2.51263e-017
LeftArm  -16.1391 22.2049 -80.9443
LeftForeArm  26.8354 -20.7503 -3.08307
LeftHand  -0.609628 -1.49888 10.4383
RightShoulder  -4.96962e-017 0 -2.36833e-017
RightArm  -12.7355 -8.61562 76.3905
RightForeArm  46.0049 32.2801 4.52499
RightHand  -0.199545 -2.73628 -8.28084
LeftUpLeg  -17.4705 11.2577 2.40184
LeftLeg  19.6008 16.6279 4.6632
LeftFoot  1.90747 -0.0103951 0.747818
LeftToes  -21.1633 2.25955e-006 -3.67304e-008
414
root  2.32029 34.4528 -27.1859 -169.774 83.4588 177.919
RightUpLeg  -18.121 -9.6318 -5.80073
RightLeg  4.45032 9.6349 0.130862
RightFoot  13.723 -0.232408 2.41318
RightToes  -41.6027 -0.231412 -0.332498
Spine  0.137633 0.874224 -0.807295
Spine1  0.194061 1.84314 -0.925667
HEad  -67.5399 -24.1447 9.8406
LeftShoulder1  -1.94126e-019 -3.10601e-018 -2.51263e-017
LeftArm  -15.994 23.0515 -80.7432
LeftForeArm  27.0772 -19.214 -2.84479
LeftHand  -0.608634 -1.42512 10.5287
RightShoulder  -4.96962e-017 0 -2.36833e-017
RightArm  -16.3252 -11.8146 76.9281
RightForeArm  45.0649 31.6577 4.42739
RightHand  -0.167454 -3.57586 -9.88938
LeftUpLeg  -16.4464 12.0663 2.13372
LeftLeg  18.6073 17.2112 4.50715
LeftFoot  1.98207 -0.0115254 0.7879
LeftToes  -21.0348 2.25955e-006 -3.67304e-008
415
root  2.38939 34.4544 -27.1724 -170.255 85.5386 177.55
RightUpLeg  -19.0432 -8.8698 -5.72013
RightLeg  5.80721 9.83856 0.365761
RightFoot  13.0068 -0.211985 2.34013
RightToes  -42.6348 -0.239866 -0.329517
Spine  0.0526268 0.465549 -0.741978
Spine1  0.0321046 1.0134 -0.791671
HEad  -67.952 -23.2938 10.0868
LeftShoulder1  -1.94126e-019 -3.10601e-018 -2.51263e-017
LeftArm  -15.4931 23.0919 -80.5567
LeftForeArm  27.5609 -16.6188 -2.51358
LeftHand  -0.598306 -1.47104 10.2874
RightShoulder  -4.96962e-017 0 -2.36833e-017
RightArm  -17.7771 -13.5884 76.854
RightForeArm  46.2256 30.0212 4.00213
RightHand  -0.149309 -3.93329 -10.8038
LeftUpLeg  -15.4785 13.3462 2.04807
LeftLeg  17.8585 18.0579 4.47481
LeftFoot  2.05775 -0.0132809 0.841889
LeftToes  -21.4476 2.25955e-006 -3.67304e-008
416
root  2.44818 34.4424 -27.103 -166.806 88.2186 -178.898
RightUpLeg  -20.606 -9.39364 -4.98366
RightLeg  8.15539 9.00929 0.704153
RightFoot  11.5034 -0.144962 1.92397
RightToes  -40.1727 -0.219865 -0.316096
Spine  0.0756839 0.34559 -0.653427
Spine1  0.080272 0.763379 -0.612913
HEad  -69.003 -23.121 10.8127
LeftShoulder1  -1.94126e-019 -3.10601e-018 -2.51263e-017
LeftArm  -15.5443 22.4641 -80.4556
LeftForeArm  28.3562 -14.0888 -2.22889
LeftHand  -0.565259 -1.45084 9.75638
RightShoulder  -4.96962e-017 0 -2.36833e-017
RightArm  -19.5072 -15.1038 76.5214
RightForeArm  46.2269 29.8488 3.9616
RightHand  -0.143243 -3.7794 -9.3082
LeftUpLeg  -14.6398 15.2594 2.17519
LeftLeg  17.5229 18.8118 4.54017
LeftFoot  1.95961 -0.0107681 0.834443
LeftToes  -21.6713 2.25955e-006 -3.67304e-008
